<svg width="42" height="42" viewBox="0 0 42 42" fill="none" xmlns="http://www.w3.org/2000/svg">
<path d="M21 42C32.598 42 42 32.598 42 21C42 9.40202 32.598 0 21 0C9.40202 0 0 9.40202 0 21C0 32.598 9.40202 42 21 42Z" fill="#FFA300"/>
<g clip-path="url(#clip0_9_2288)">
<path d="M10.2162 16.4587C10.2162 15.2066 11.2909 14.1885 12.6126 14.1885H22.1982C23.52 14.1885 24.5946 15.2066 24.5946 16.4587V25.5398C24.5946 26.792 23.52 27.8101 22.1982 27.8101H12.6126C11.2909 27.8101 10.2162 26.792 10.2162 25.5398V16.4587ZM31.151 15.4584C31.5404 15.6571 31.7838 16.0402 31.7838 16.4587V25.5398C31.7838 25.9584 31.5404 26.3415 31.151 26.5402C30.7616 26.7388 30.2898 26.7175 29.9191 26.4834L26.3245 24.2131L25.7928 23.8761V23.2696V18.729V18.1224L26.3245 17.7854L29.9191 15.5152C30.2861 15.2846 30.7579 15.2598 31.151 15.4584Z" fill="white"/>
</g>
<defs>
<clipPath id="clip0_9_2288">
<rect width="21.5676" height="15.8919" fill="white" transform="translate(10.2162 13.0537)"/>
</clipPath>
</defs>
</svg>
