<svg width="29" height="25" viewBox="0 0 29 25" fill="none" xmlns="http://www.w3.org/2000/svg">
<path d="M14.5 6.69629C12.7498 6.69629 11.3281 5.29729 11.3281 3.57129C11.3281 1.84528 12.7498 0.446289 14.5 0.446289C16.2502 0.446289 17.6719 1.84528 17.6719 3.57129C17.6719 5.29729 16.2502 6.69629 14.5 6.69629ZM14.5 15.6249C12.7498 15.6249 11.3281 14.2242 11.3281 12.4999C11.3281 10.7755 12.7498 9.37486 14.5 9.37486C16.2502 9.37486 17.6719 10.7755 17.6719 12.4999C17.6719 14.2242 16.2502 15.6249 14.5 15.6249ZM14.5 18.3034C16.2502 18.3034 17.6719 19.7041 17.6719 21.4284C17.6719 23.1528 16.2502 24.5534 14.5 24.5534C12.7498 24.5534 11.3281 23.1528 11.3281 21.4284C11.3281 19.7041 12.7498 18.3034 14.5 18.3034Z" fill="#998E95"/>
</svg>
