<svg width="14" height="19" viewBox="0 0 14 19" fill="none" xmlns="http://www.w3.org/2000/svg">
<g clip-path="url(#clip0_9_2343)">
<path d="M1.75 16.625V2.375C1.75 2.04844 2.0125 1.78125 2.33333 1.78125H8.16667V4.75C8.16667 5.40684 8.68802 5.9375 9.33333 5.9375H12.25V16.625C12.25 16.9516 11.9875 17.2188 11.6667 17.2188H2.33333C2.0125 17.2188 1.75 16.9516 1.75 16.625ZM2.33333 0C1.04635 0 0 1.06504 0 2.375V16.625C0 17.935 1.04635 19 2.33333 19H11.6667C12.9536 19 14 17.935 14 16.625V5.7334C14 5.10254 13.7557 4.49766 13.3182 4.05234L10.0151 0.693945C9.5776 0.248633 8.98698 0 8.36719 0H2.33333ZM7 7.71875C6.5151 7.71875 6.125 8.11582 6.125 8.60938V10.3906H4.375C3.8901 10.3906 3.5 10.7877 3.5 11.2812C3.5 11.7748 3.8901 12.1719 4.375 12.1719H6.125V13.9531C6.125 14.4467 6.5151 14.8438 7 14.8438C7.4849 14.8438 7.875 14.4467 7.875 13.9531V12.1719H9.625C10.1099 12.1719 10.5 11.7748 10.5 11.2812C10.5 10.7877 10.1099 10.3906 9.625 10.3906H7.875V8.60938C7.875 8.11582 7.4849 7.71875 7 7.71875Z" fill="#FFA300"/>
</g>
<defs>
<clipPath id="clip0_9_2343">
<rect width="14" height="19" fill="white"/>
</clipPath>
</defs>
</svg>
