<svg width="16" height="18" viewBox="0 0 16 18" fill="none" xmlns="http://www.w3.org/2000/svg">
<path d="M5.72205e-06 9.00035C5.72205e-06 8.69097 0.264291 8.43785 0.592862 8.43785H14.0675L9.0425 3.18902C8.82261 2.95941 8.84054 2.60331 9.08243 2.39484C9.19643 2.29956 9.33929 2.25035 9.48215 2.25035C9.64304 2.25035 9.80389 2.31187 9.92072 2.43492L15.8457 8.62242C16.0511 8.83666 16.0511 9.16417 15.8457 9.37828L9.92072 15.5658C9.69965 15.7965 9.32465 15.8119 9.08322 15.6042C8.84132 15.3955 8.8234 15.0396 9.04329 14.8101L14.0675 9.56285H0.592505C0.264291 9.56285 5.72205e-06 9.30972 5.72205e-06 9.00035Z" fill="black"/>
</svg>
