<svg width="78" height="20" viewBox="0 0 78 20" fill="none" xmlns="http://www.w3.org/2000/svg">
<path opacity="0.3" d="M1.40137 14.1368L8.11566 17.4391C9.24407 17.994 10.4953 18.2156 11.7347 18.0798C12.9741 17.9441 14.1548 17.4563 15.1498 16.6688L19.5742 13.1671C20.7033 12.2735 22.0681 11.7684 23.4815 11.721C24.8948 11.6736 26.2876 12.0862 27.4687 12.9023V12.9023C28.2543 13.4451 29.1379 13.8123 30.0645 13.9812C30.9911 14.15 31.941 14.1169 32.8549 13.8839C33.7688 13.6508 34.6272 13.2228 35.3767 12.6265C36.1262 12.0303 36.7508 11.2784 37.2116 10.4179L39.7746 5.63067C40.3335 4.58686 41.1318 3.70599 42.0971 3.06792C43.0624 2.42986 44.1641 2.05479 45.3025 1.97673C46.4408 1.89867 47.5797 2.12008 48.6159 2.6209C49.6521 3.12171 50.5527 3.88608 51.2363 4.84469L52.8099 7.05163C53.4481 7.94671 54.2763 8.67333 55.2288 9.17382C56.1812 9.67431 57.2317 9.9349 58.2968 9.9349H62.9708C64.3347 9.9349 65.6676 10.3621 66.7989 11.1617L76.599 18.0888" stroke="#FFA300" stroke-width="2" stroke-linecap="round" stroke-linejoin="round"/>
<path d="M12.7094 17.8687C12.7094 18.1706 12.624 18.4639 12.4665 18.7113C12.3091 18.9585 12.0879 19.1474 11.8337 19.2579C11.5799 19.3682 11.3021 19.3967 11.0344 19.3408C10.7664 19.2848 10.5168 19.1461 10.3185 18.938C10.12 18.7296 9.98232 18.4613 9.92631 18.1657C9.87028 17.8701 9.89923 17.5639 10.0086 17.2868C10.1179 17.0099 10.3014 16.7771 10.5324 16.6151C10.763 16.4533 11.0315 16.3687 11.3039 16.3687C11.6686 16.3687 12.0236 16.5205 12.2893 16.7993C12.5557 17.079 12.7094 17.4632 12.7094 17.8687Z" fill="#449C45" stroke="#449C45"/>
<path d="M23.7526 11.8413C23.7526 12.1432 23.6672 12.4365 23.5097 12.6839C23.3523 12.9311 23.1311 13.12 22.877 13.2305C22.6231 13.3409 22.3453 13.3693 22.0776 13.3134C21.8096 13.2575 21.56 13.1187 21.3618 12.9106L20.9997 13.2555L21.3618 12.9106C21.1632 12.7023 21.0255 12.4339 20.9695 12.1384C20.9135 11.8428 20.9424 11.5366 21.0518 11.2595C21.1611 10.9825 21.3446 10.7497 21.5756 10.5877C21.8062 10.426 22.0747 10.3413 22.3471 10.3413C22.7118 10.3413 23.0668 10.4932 23.3325 10.772C23.5989 11.0516 23.7526 11.4359 23.7526 11.8413Z" fill="#449C45" stroke="#449C45"/>
<path d="M34.5233 13.5195C34.5233 13.8214 34.4379 14.1147 34.2804 14.3621C34.1231 14.6093 33.9019 14.7982 33.6477 14.9087C33.3939 15.0191 33.1161 15.0476 32.8484 14.9917C32.5804 14.9357 32.3308 14.797 32.1326 14.5889C31.934 14.3806 31.7963 14.1122 31.7403 13.8167C31.6842 13.5211 31.7132 13.2149 31.8225 12.9378C31.9318 12.6608 32.1153 12.428 32.3463 12.266C32.5769 12.1042 32.8453 12.0196 33.1178 12.0195C33.2989 12.0195 33.4789 12.0569 33.6476 12.1303C33.8164 12.2037 33.9715 12.3119 34.1032 12.4502L34.4595 12.1107L34.1032 12.4502C34.2349 12.5884 34.3406 12.7539 34.4132 12.9376C34.4857 13.1214 34.5233 13.3192 34.5233 13.5195Z" fill="#449C45" stroke="#449C45"/>
<path d="M45.3747 1.99984C45.3747 2.30176 45.2893 2.59507 45.1318 2.84252C44.9745 3.08974 44.7533 3.27865 44.4991 3.38918C44.2453 3.49956 43.9675 3.52802 43.6997 3.47214C43.4318 3.41622 43.1822 3.27746 42.9839 3.06937C42.7854 2.86102 42.6476 2.59269 42.5916 2.29714C42.5356 2.00151 42.5645 1.69532 42.6738 1.41821C42.7831 1.14127 42.9667 0.908421 43.1977 0.746432C43.4283 0.58467 43.6968 0.5 43.9692 0.5C44.3339 0.5 44.6889 0.651831 44.9545 0.930628C45.2209 1.21025 45.3746 1.59445 45.3747 1.99984Z" fill="#449C45" stroke="#449C45"/>
<path d="M56.1786 9.04487C56.1786 9.34678 56.0932 9.64008 55.9357 9.88752C55.7784 10.1347 55.5572 10.3236 55.303 10.4341C55.0492 10.5445 54.7714 10.5729 54.5036 10.5171C54.2357 10.4611 53.9861 10.3224 53.7878 10.1143C53.5893 9.9059 53.4516 9.63757 53.3955 9.34202C53.3395 9.0464 53.3685 8.74021 53.4778 8.46311C53.5871 8.18617 53.7707 7.95333 54.0016 7.79135C54.2323 7.62959 54.5007 7.54492 54.7732 7.54492C55.1379 7.54492 55.4929 7.69677 55.7585 7.97559C56.0249 8.25523 56.1786 8.63945 56.1786 9.04487Z" fill="#449C45" stroke="#449C45"/>
<path d="M66.924 10.553C66.924 10.8549 66.8386 11.1482 66.681 11.3956C66.5237 11.6428 66.3025 11.8317 66.0483 11.9422C65.7945 12.0526 65.5167 12.081 65.2489 12.0251C64.981 11.9692 64.7314 11.8304 64.5331 11.6223C64.3346 11.4139 64.1969 11.1456 64.1409 10.8501C64.0849 10.5544 64.1138 10.2482 64.2232 9.97115C64.3325 9.69422 64.516 9.46138 64.747 9.2994C64.9776 9.13764 65.2461 9.05298 65.5185 9.05298C65.8832 9.05298 66.2382 9.20483 66.5038 9.48366C66.7703 9.76331 66.924 10.1476 66.924 10.553Z" fill="#449C45" stroke="#449C45"/>
</svg>
