<svg width="14" height="16" viewBox="0 0 14 16" fill="none" xmlns="http://www.w3.org/2000/svg">
<path d="M0.293799 8.70605L5.2938 13.7061C5.48755 13.9029 5.7438 13.9998 6.00005 13.9998C6.2563 13.9998 6.51192 13.9021 6.70692 13.7068C7.09755 13.3162 7.09755 12.6834 6.70692 12.2928L3.41255 8.9998H13.0001C13.5522 8.9998 14 8.55293 14 7.9998C14 7.44668 13.5522 6.9998 13.0001 6.9998H3.41255L6.7063 3.70605C7.09693 3.31543 7.09693 2.68262 6.7063 2.29199C6.31568 1.90137 5.68286 1.90137 5.29224 2.29199L0.292237 7.29199C-0.0968256 7.68418 -0.0968256 8.31543 0.293799 8.70605Z" fill="#D4CFCC"/>
</svg>
