<svg width="29" height="25" viewBox="0 0 29 25" fill="none" xmlns="http://www.w3.org/2000/svg">
<path d="M14.5 6.69653C12.7498 6.69653 11.3281 5.29754 11.3281 3.57153C11.3281 1.84553 12.7498 0.446533 14.5 0.446533C16.2502 0.446533 17.6719 1.84553 17.6719 3.57153C17.6719 5.29754 16.2502 6.69653 14.5 6.69653ZM14.5 15.6251C12.7498 15.6251 11.3281 14.2244 11.3281 12.5001C11.3281 10.7758 12.7498 9.3751 14.5 9.3751C16.2502 9.3751 17.6719 10.7758 17.6719 12.5001C17.6719 14.2244 16.2502 15.6251 14.5 15.6251ZM14.5 18.3037C16.2502 18.3037 17.6719 19.7043 17.6719 21.4287C17.6719 23.153 16.2502 24.5537 14.5 24.5537C12.7498 24.5537 11.3281 23.153 11.3281 21.4287C11.3281 19.7043 12.7498 18.3037 14.5 18.3037Z" fill="#998E95"/>
</svg>
