<svg width="14" height="16" viewBox="0 0 14 16" fill="none" xmlns="http://www.w3.org/2000/svg">
<path d="M13.7062 8.70605L8.7062 13.7061C8.51245 13.9029 8.2562 13.9998 7.99995 13.9998C7.7437 13.9998 7.48808 13.9021 7.29308 13.7068C6.90245 13.3162 6.90245 12.6834 7.29308 12.2928L10.5875 8.9998H0.99995C0.447762 8.9998 0 8.55293 0 7.9998C0 7.44668 0.447762 6.9998 0.99995 6.9998H10.5875L7.2937 3.70605C6.90307 3.31543 6.90307 2.68262 7.2937 2.29199C7.68432 1.90137 8.31714 1.90137 8.70776 2.29199L13.7078 7.29199C14.0968 7.68418 14.0968 8.31543 13.7062 8.70605Z" fill="white"/>
</svg>
