<svg width="14" height="16" viewBox="0 0 14 16" fill="none" xmlns="http://www.w3.org/2000/svg">
<path d="M0.293738 8.70605L5.29374 13.7061C5.48749 13.9029 5.74374 13.9998 5.99999 13.9998C6.25624 13.9998 6.51186 13.9021 6.70686 13.7068C7.09749 13.3162 7.09749 12.6834 6.70686 12.2928L3.41249 8.9998H13C13.5522 8.9998 13.9999 8.55293 13.9999 7.9998C13.9999 7.44668 13.5522 6.9998 13 6.9998H3.41249L6.70624 3.70605C7.09686 3.31543 7.09686 2.68262 6.70624 2.29199C6.31561 1.90137 5.6828 1.90137 5.29218 2.29199L0.292176 7.29199C-0.0968866 7.68418 -0.0968866 8.31543 0.293738 8.70605Z" fill="#D4CFCC"/>
</svg>
