<svg width="174" height="174" viewBox="0 0 174 174" fill="none" xmlns="http://www.w3.org/2000/svg">
<path d="M87 174C110.074 174 132.203 164.834 148.518 148.518C164.834 132.203 174 110.074 174 87C174 63.9262 164.834 41.7974 148.518 25.4817C132.203 9.16605 110.074 0 87 0C63.9262 0 41.7974 9.16605 25.4817 25.4817C9.16605 41.7974 0 63.9262 0 87C0 110.074 9.16605 132.203 25.4817 148.518C41.7974 164.834 63.9262 174 87 174ZM125.402 71.0273L81.9023 114.527C78.7078 117.722 73.5422 117.722 70.3816 114.527L48.6316 92.7773C45.4371 89.5828 45.4371 84.4172 48.6316 81.2566C51.8262 78.0961 56.9918 78.0621 60.1523 81.2566L76.125 97.2293L113.848 59.4727C117.042 56.2781 122.208 56.2781 125.368 59.4727C128.529 62.6672 128.563 67.8328 125.368 70.9934L125.402 71.0273Z" fill="#449C45"/>
</svg>
