<svg width="39" height="39" viewBox="0 0 39 39" fill="none" xmlns="http://www.w3.org/2000/svg">
<circle cx="19.5" cy="19.5" r="19.5" fill="#449C45"/>
<g clip-path="url(#clip0_82_2521)">
<path d="M27.4089 24.0597C26.1339 23.0036 25.4028 21.4599 25.4028 19.8245V17.5205C25.4028 14.6124 23.1985 12.2052 20.3432 11.8019V10.9094C20.3432 10.4524 19.9655 10.083 19.5 10.083C19.0345 10.083 18.6567 10.4524 18.6567 10.9094V11.8019C15.8006 12.2052 13.5972 14.6124 13.5972 17.5205V19.8245C13.5972 21.4599 12.8661 23.0036 11.5835 24.0663C11.2555 24.3415 11.0674 24.7415 11.0674 25.1646C11.0674 25.9621 11.7294 26.6108 12.5431 26.6108H26.4568C27.2706 26.6108 27.9325 25.9621 27.9325 25.1646C27.9325 24.7415 27.7445 24.3415 27.4089 24.0597Z" fill="white"/>
<path d="M19.5 29.9167C21.0271 29.9167 22.3046 28.8498 22.5981 27.4375H16.4019C16.6953 28.8498 17.9728 29.9167 19.5 29.9167Z" fill="white"/>
</g>
<defs>
<clipPath id="clip0_82_2521">
<rect width="17" height="19.8333" fill="white" transform="translate(11 10.083)"/>
</clipPath>
</defs>
</svg>
