<svg width="26" height="35" viewBox="0 0 26 35" fill="none" xmlns="http://www.w3.org/2000/svg">
<g clip-path="url(#clip0_118_4422)">
<path d="M0 1.64062C0 0.731445 0.724479 0 1.625 0H24.375C25.2755 0 26 0.731445 26 1.64062C26 2.5498 25.2755 3.28125 24.375 3.28125H23.8333V4.58008C23.8333 7.33496 22.75 9.98047 20.8203 11.9287L15.2953 17.5L20.8135 23.0713C22.75 25.0195 23.8333 27.665 23.8333 30.4199V31.7188H24.375C25.2755 31.7188 26 32.4502 26 33.3594C26 34.2686 25.2755 35 24.375 35H1.625C0.724479 35 0 34.2686 0 33.3594C0 32.4502 0.724479 31.7188 1.625 31.7188H2.16667V30.4199C2.16667 27.665 3.25 25.0195 5.17969 23.0713L10.7047 17.5L5.17969 11.9287C3.25 9.98047 2.16667 7.33496 2.16667 4.58008V3.28125H1.625C0.724479 3.28125 0 2.5498 0 1.64062ZM7.48177 25.3955C7.21771 25.6621 6.97396 25.9492 6.75729 26.25H19.2427C19.026 25.9492 18.7823 25.6621 18.5182 25.3955L13 19.8174L7.48177 25.3887V25.3955ZM19.2427 8.75C20.1094 7.54688 20.5833 6.08398 20.5833 4.58008V3.28125H5.41667V4.58008C5.41667 6.09082 5.89063 7.54688 6.75729 8.75H19.2427Z" fill="#FFA300"/>
</g>
<defs>
<clipPath id="clip0_118_4422">
<rect width="26" height="35" fill="white"/>
</clipPath>
</defs>
</svg>
