<svg width="24" height="24" viewBox="0 0 24 24" fill="none" xmlns="http://www.w3.org/2000/svg">
<path d="M22.8 4H1.2C0.537375 4 0 4.51179 0 5.14286V18.8571C0 19.4882 0.537375 20 1.2 20H22.8C23.4626 20 24 19.4882 24 18.8571V5.14286C24 4.51179 23.4626 4 22.8 4ZM6.6 14.5671V15.1429C6.6 15.3007 6.46575 15.4286 6.3 15.4286H5.7C5.53425 15.4286 5.4 15.3007 5.4 15.1429V14.5611C4.97662 14.5404 4.56488 14.3996 4.22363 14.1557C4.07737 14.0511 4.06988 13.8425 4.20225 13.7221L4.64288 13.3218C4.74675 13.2275 4.90125 13.2232 5.02275 13.2957C5.16788 13.3821 5.3325 13.4286 5.5035 13.4286H6.55763C6.80137 13.4286 7.00013 13.2171 7.00013 12.9575C7.00013 12.745 6.86475 12.5579 6.67125 12.5029L4.98375 12.0207C4.28662 11.8214 3.7995 11.1843 3.7995 10.4711C3.7995 9.59536 4.51388 8.88393 5.39963 8.86143V8.28571C5.39963 8.12786 5.53388 8 5.69963 8H6.29963C6.46538 8 6.59963 8.12786 6.59963 8.28571V8.8675C7.023 8.88821 7.43475 9.02857 7.776 9.27286C7.92225 9.3775 7.92975 9.58607 7.79738 9.70643L7.35675 10.1068C7.25287 10.2011 7.09838 10.2054 6.97688 10.1329C6.83175 10.0461 6.66713 10 6.49613 10H5.442C5.19825 10 4.9995 10.2114 4.9995 10.4711C4.9995 10.6836 5.13488 10.8707 5.32837 10.9257L7.01588 11.4079C7.713 11.6071 8.20013 12.2443 8.20013 12.9575C8.20013 13.8336 7.48575 14.5446 6.6 14.5671ZM15.6 14C15.6 14.1579 15.4658 14.2857 15.3 14.2857H11.1C10.9343 14.2857 10.8 14.1579 10.8 14V13.4286C10.8 13.2707 10.9343 13.1429 11.1 13.1429H15.3C15.4658 13.1429 15.6 13.2707 15.6 13.4286V14ZM21.6 14C21.6 14.1579 21.4658 14.2857 21.3 14.2857H18.3C18.1343 14.2857 18 14.1579 18 14V13.4286C18 13.2707 18.1343 13.1429 18.3 13.1429H21.3C21.4658 13.1429 21.6 13.2707 21.6 13.4286V14ZM21.6 10.5714C21.6 10.7293 21.4658 10.8571 21.3 10.8571H11.1C10.9343 10.8571 10.8 10.7293 10.8 10.5714V10C10.8 9.84214 10.9343 9.71429 11.1 9.71429H21.3C21.4658 9.71429 21.6 9.84214 21.6 10V10.5714Z" fill="#449C45"/>
</svg>
