<svg width="88" height="113" viewBox="0 0 88 113" fill="none" xmlns="http://www.w3.org/2000/svg">
<g clip-path="url(#clip0_118_4424)">
<path d="M87.2718 0.581299H26.8569V83.2543H87.2718V0.581299Z" fill="#F5F5F5"/>
<path d="M71.9588 10.9883H11.5439V93.6613H71.9588V10.9883Z" fill="#E0E0E0"/>
<path d="M61.6068 23.6851H1.19189V106.358H61.6068V23.6851Z" fill="white"/>
<path d="M61.6367 106.336C61.6367 106.336 61.626 106.194 61.6204 105.93C61.6164 105.647 61.6109 105.261 61.6037 104.76C61.5954 103.713 61.5834 102.202 61.5676 100.241C61.5477 96.2849 61.519 90.5328 61.4825 83.2595C61.4389 68.7094 61.3772 48.0783 61.304 23.6638L61.5772 23.9367C43.3833 23.9583 22.8389 23.9827 1.16935 24.0084H1.16255L1.46365 23.7068C1.46515 54.587 1.46645 83.176 1.46745 106.38L1.22165 106.134C19.4949 106.174 34.5663 106.208 45.092 106.231C50.3496 106.254 54.4706 106.272 57.2999 106.285C58.6954 106.296 59.7685 106.305 60.5173 106.311C61.2473 106.319 61.6367 106.336 61.6367 106.336C61.6367 106.336 61.283 106.355 60.5695 106.364C59.8316 106.371 58.774 106.381 57.3986 106.394C54.582 106.411 50.4796 106.435 45.2459 106.466C34.6834 106.504 19.5592 106.559 1.22205 106.626L0.976252 106.627L0.975852 106.38C0.943552 83.1763 0.903751 54.5874 0.860851 23.7073L0.860352 23.4056H1.16885C22.8384 23.4001 43.3829 23.3949 61.5769 23.3904H61.8507L61.8502 23.6634C61.8124 48.151 61.7803 68.8438 61.7577 83.4374C61.7317 90.6842 61.7111 96.4155 61.6969 100.358C61.6841 102.295 61.6743 103.788 61.6674 104.822C61.6609 105.31 61.656 105.686 61.6524 105.961C61.6473 106.215 61.6421 106.342 61.6367 106.336Z" fill="black"/>
<path d="M38.1219 40.2966C38.122 40.4632 31.5493 40.6028 23.4431 40.6087C15.3343 40.6145 8.7628 40.4843 8.7627 40.3178C8.7625 40.1513 15.3338 40.0116 23.4427 40.0058C31.5488 39.9999 38.1217 40.1302 38.1219 40.2966Z" fill="black"/>
<path d="M54.0059 47.469C54.0059 47.6355 43.8784 47.7777 31.3882 47.7868C18.8937 47.7958 8.76817 47.6681 8.76807 47.5015C8.76787 47.3351 18.8933 47.1928 31.3878 47.1838C43.878 47.1748 54.0058 47.3025 54.0059 47.469Z" fill="black"/>
<path d="M54.0112 54.9633C54.0112 55.1298 43.8838 55.2721 31.3936 55.2811C18.8991 55.2902 8.77354 55.1625 8.77344 54.9959C8.77344 54.8295 18.8987 54.6872 31.3932 54.6782C43.8834 54.6691 54.0111 54.7968 54.0112 54.9633Z" fill="black"/>
<path d="M54.0166 62.4578C54.0168 62.6244 43.8892 62.7666 31.3991 62.7756C18.9045 62.7846 8.77891 62.6569 8.77881 62.4903C8.77881 62.324 18.904 62.1817 31.3986 62.1726C43.8888 62.1636 54.0165 62.2914 54.0166 62.4578Z" fill="black"/>
<path d="M54.0222 69.9524C54.0222 70.119 43.8948 70.2611 31.4045 70.2702C18.9099 70.2791 8.78448 70.1515 8.78418 69.9849C8.78408 69.8185 18.9096 69.6762 31.4041 69.6672C43.8943 69.6582 54.0221 69.786 54.0222 69.9524Z" fill="black"/>
<path d="M54.0274 77.4467C54.0275 77.6132 43.8999 77.7555 31.4097 77.7645C18.9152 77.7734 8.78965 77.6459 8.78955 77.4793C8.78955 77.3129 18.9147 77.1706 31.4093 77.1616C43.8994 77.1525 54.0273 77.2804 54.0274 77.4467Z" fill="black"/>
<path d="M54.0327 84.9414C54.0329 85.1079 43.9053 85.2502 31.4151 85.2592C18.9206 85.2681 8.79502 85.1405 8.79492 84.9739C8.79492 84.8076 18.9201 84.6653 31.4147 84.6562C43.9049 84.6473 54.0326 84.7749 54.0327 84.9414Z" fill="black"/>
<path d="M33.116 92.4508C33.1161 92.6173 27.6726 92.7562 20.9589 92.7611C14.2431 92.7659 8.80039 92.6349 8.80029 92.4683C8.80009 92.3019 14.2426 92.163 20.9585 92.1581C27.6722 92.1534 33.1159 92.2843 33.116 92.4508Z" fill="black"/>
<path d="M56.3528 112.347C63.1302 112.347 68.6245 106.852 68.6245 100.075C68.6245 93.2974 63.1302 87.8032 56.3528 87.8032C49.5753 87.8032 44.0811 93.2974 44.0811 100.075C44.0811 106.852 49.5753 112.347 56.3528 112.347Z" fill="#FFA300"/>
<g clip-path="url(#clip1_118_4424)">
<path d="M61.7812 100.5C61.7812 99.0993 61.2248 97.756 60.2344 96.7656C59.244 95.7752 57.9007 95.2188 56.5 95.2188C55.0993 95.2188 53.756 95.7752 52.7656 96.7656C51.7752 97.756 51.2188 99.0993 51.2188 100.5C51.2188 101.901 51.7752 103.244 52.7656 104.234C53.756 105.225 55.0993 105.781 56.5 105.781C57.9007 105.781 59.244 105.225 60.2344 104.234C61.2248 103.244 61.7812 101.901 61.7812 100.5ZM50 100.5C50 98.7761 50.6848 97.1228 51.9038 95.9038C53.1228 94.6848 54.7761 94 56.5 94C58.2239 94 59.8772 94.6848 61.0962 95.9038C62.3152 97.1228 63 98.7761 63 100.5C63 102.224 62.3152 103.877 61.0962 105.096C59.8772 106.315 58.2239 107 56.5 107C54.7761 107 53.1228 106.315 51.9038 105.096C50.6848 103.877 50 102.224 50 100.5ZM53.25 99.2812H59.75C60.1994 99.2812 60.5625 99.6443 60.5625 100.094V100.906C60.5625 101.356 60.1994 101.719 59.75 101.719H53.25C52.8006 101.719 52.4375 101.356 52.4375 100.906V100.094C52.4375 99.6443 52.8006 99.2812 53.25 99.2812Z" fill="white"/>
</g>
</g>
<defs>
<clipPath id="clip0_118_4424">
<rect width="88" height="113" fill="white"/>
</clipPath>
<clipPath id="clip1_118_4424">
<rect width="13" height="13" fill="white" transform="translate(50 94)"/>
</clipPath>
</defs>
</svg>
