<svg width="16" height="19" viewBox="0 0 16 19" fill="none" xmlns="http://www.w3.org/2000/svg">
<g clip-path="url(#clip0_118_4542)">
<path d="M13.0075 3.10972C12.1361 2.20425 10.7218 2.20425 9.85039 3.10972L3.27896 9.93784C1.77539 11.5001 1.77539 14.031 3.27896 15.5933C4.78253 17.1556 7.21825 17.1556 8.72182 15.5933L14.1504 9.95269C14.5397 9.54819 15.1754 9.54819 15.5647 9.95269C15.954 10.3572 15.954 11.0177 15.5647 11.4222L10.1361 17.0628C7.85039 19.4378 4.15039 19.4378 1.86468 17.0628C-0.421038 14.6878 -0.421038 10.8433 1.86468 8.46831L8.43611 1.64019C10.0897 -0.0779786 12.7682 -0.0779786 14.4218 1.64019C16.0754 3.35835 16.0754 6.14155 14.4218 7.85972L8.13611 14.391C7.11468 15.4523 5.45753 15.4523 4.43611 14.391C3.41468 13.3296 3.41468 11.6078 4.43611 10.5464L9.57896 5.20269C9.96825 4.79819 10.604 4.79819 10.9932 5.20269C11.3825 5.60718 11.3825 6.26772 10.9932 6.67222L5.85039 12.016C5.61111 12.2646 5.61111 12.6728 5.85039 12.9214C6.08968 13.1701 6.48253 13.1701 6.72182 12.9214L13.0075 6.39019C13.879 5.48472 13.879 4.01519 13.0075 3.10972Z" fill="#FFA300"/>
</g>
<defs>
<clipPath id="clip0_118_4542">
<rect width="16" height="19" fill="white"/>
</clipPath>
</defs>
</svg>
