<svg width="24" height="25" viewBox="0 0 24 25" fill="none" xmlns="http://www.w3.org/2000/svg">
<g clip-path="url(#clip0_119_6333)">
<path d="M7.12719 12.914C8.99101 12.914 10.5019 11.4031 10.5019 9.5393C10.5019 7.67548 8.99101 6.16455 7.12719 6.16455C5.26337 6.16455 3.75244 7.67548 3.75244 9.5393C3.75244 11.4031 5.26337 12.914 7.12719 12.914Z" fill="#449C45"/>
<path d="M10.9685 14.7887C9.64857 14.1185 8.1918 13.8513 7.12501 13.8513C5.03548 13.8513 0.750488 15.1328 0.750488 17.6948V19.6634H7.78121V18.9102C7.78121 18.0196 8.15618 17.1267 8.81238 16.3824C9.33593 15.788 10.069 15.2364 10.9685 14.7887Z" fill="#449C45"/>
<path d="M15.9379 14.4138C13.4973 14.4138 8.62598 15.9212 8.62598 18.9135V21.1633H23.2499V18.9135C23.2499 15.9212 18.3785 14.4138 15.9379 14.4138Z" fill="#449C45"/>
<path d="M15.9382 12.9138C18.2162 12.9138 20.0629 11.0671 20.0629 8.78912C20.0629 6.51112 18.2162 4.66443 15.9382 4.66443C13.6602 4.66443 11.8135 6.51112 11.8135 8.78912C11.8135 11.0671 13.6602 12.9138 15.9382 12.9138Z" fill="#449C45"/>
</g>
<defs>
<clipPath id="clip0_119_6333">
<rect width="23.9982" height="23.9982" fill="white" transform="translate(0 0.917969)"/>
</clipPath>
</defs>
</svg>
