<svg width="39" height="39" viewBox="0 0 39 39" fill="none" xmlns="http://www.w3.org/2000/svg">
<circle cx="19.5" cy="19.5" r="19.5" fill="#F1F1F1"/>
<g clip-path="url(#clip0_119_6314)">
<path d="M27.4088 24.06C26.1338 23.0038 25.4027 21.4601 25.4027 19.8247V17.5208C25.4027 14.6127 23.1984 12.2054 20.3432 11.8021V10.9096C20.3432 10.4526 19.9654 10.0833 19.4999 10.0833C19.0344 10.0833 18.6567 10.4526 18.6567 10.9096V11.8021C15.8006 12.2054 13.5971 14.6127 13.5971 17.5208V19.8247C13.5971 21.4601 12.866 23.0038 11.5835 24.0666C11.2554 24.3418 11.0674 24.7417 11.0674 25.1649C11.0674 25.9623 11.7293 26.611 12.5431 26.611H26.4568C27.2705 26.611 27.9325 25.9623 27.9325 25.1649C27.9325 24.7417 27.7444 24.3418 27.4088 24.06Z" fill="#7D7D7D"/>
<path d="M19.5 29.9167C21.0271 29.9167 22.3046 28.8498 22.5981 27.4375H16.4019C16.6953 28.8498 17.9728 29.9167 19.5 29.9167Z" fill="#7D7D7D"/>
</g>
<circle cx="24.1043" cy="14.6873" r="3.89583" fill="#FFA300" stroke="#F1F1F1" stroke-width="2"/>
<defs>
<clipPath id="clip0_119_6314">
<rect width="17" height="19.8333" fill="white" transform="translate(11 10.0833)"/>
</clipPath>
</defs>
</svg>
