<svg width="42" height="42" viewBox="0 0 42 42" fill="none" xmlns="http://www.w3.org/2000/svg">
<path d="M21 42C32.598 42 42 32.598 42 21C42 9.40202 32.598 0 21 0C9.40202 0 0 9.40202 0 21C0 32.598 9.40202 42 21 42Z" fill="#FFA300"/>
<g clip-path="url(#clip0_54_1267)">
<path d="M10.2162 16.4595C10.2162 15.2073 11.2909 14.1892 12.6126 14.1892H22.1982C23.52 14.1892 24.5946 15.2073 24.5946 16.4595V25.5406C24.5946 26.7928 23.52 27.8108 22.1982 27.8108H12.6126C11.2909 27.8108 10.2162 26.7928 10.2162 25.5406V16.4595ZM31.151 15.4591C31.5404 15.6578 31.7838 16.0409 31.7838 16.4595V25.5406C31.7838 25.9591 31.5404 26.3423 31.151 26.5409C30.7616 26.7395 30.2898 26.7183 29.9191 26.4841L26.3245 24.2139L25.7928 23.8769V23.2703V18.7297V18.1232L26.3245 17.7862L29.9191 15.5159C30.2861 15.2853 30.7579 15.2605 31.151 15.4591Z" fill="white"/>
</g>
<defs>
<clipPath id="clip0_54_1267">
<rect width="21.5676" height="15.8919" fill="white" transform="translate(10.2162 13.054)"/>
</clipPath>
</defs>
</svg>
