<svg width="25" height="22" viewBox="0 0 25 22" fill="none" xmlns="http://www.w3.org/2000/svg">
<path d="M24.2535 4.28141C23.7938 4.04577 23.2391 4.07687 22.8147 4.3716L18.3529 7.46707C18.0382 7.68457 17.9622 8.11375 18.1819 8.42441C18.3637 8.73555 18.8325 8.80859 19.1493 8.59375L23.6111 5.5V16.4957L19.1493 13.4062C18.8339 13.1894 18.4019 13.2639 18.1823 13.5755C17.9626 13.8863 18.0385 14.3154 18.3532 14.5328L22.815 17.6257C23.0537 17.7909 23.3332 17.8743 23.6128 17.8743C23.8318 17.8743 24.052 17.8226 24.2543 17.7186C24.7135 17.4797 25 16.977 25 16.4613V5.5C25 4.98438 24.7135 4.52031 24.2535 4.28141ZM13.8889 2.75H2.77778C1.24349 2.75 0 3.98105 0 5.5V16.5C0 18.0189 1.24349 19.25 2.77778 19.25H13.8889C15.4232 19.25 16.6667 18.0189 16.6667 16.5V5.5C16.6667 3.98105 15.421 2.75 13.8889 2.75ZM15.2778 16.5C15.2778 17.258 14.6545 17.875 13.8889 17.875H2.77778C2.01215 17.875 1.38889 17.258 1.38889 16.5V5.5C1.38889 4.74203 2.01215 4.125 2.77778 4.125H13.8889C14.6545 4.125 15.2778 4.74203 15.2778 5.5V16.5Z" fill="#FFA300"/>
</svg>
