<svg width="19" height="16" viewBox="0 0 19 16" fill="none" xmlns="http://www.w3.org/2000/svg">
<path d="M0 4C0 2.89688 0.946701 2 2.11111 2H10.5556C11.72 2 12.6667 2.89688 12.6667 4V12C12.6667 13.1031 11.72 14 10.5556 14H2.11111C0.946701 14 0 13.1031 0 12V4ZM18.4425 3.11875C18.7856 3.29375 19 3.63125 19 4V12C19 12.3687 18.7856 12.7063 18.4425 12.8813C18.0995 13.0563 17.6839 13.0375 17.3573 12.8313L14.1906 10.8313L13.7222 10.5344V10V6V5.46562L14.1906 5.16875L17.3573 3.16875C17.6806 2.96563 18.0962 2.94375 18.4425 3.11875Z" fill="white"/>
</svg>
