<svg width="17" height="17" viewBox="0 0 17 17" fill="none" xmlns="http://www.w3.org/2000/svg">
<g clip-path="url(#clip0_13_4045)">
<path d="M8.5 17C10.7543 17 12.9163 16.1045 14.5104 14.5104C16.1045 12.9163 17 10.7543 17 8.5C17 6.24566 16.1045 4.08365 14.5104 2.48959C12.9163 0.895533 10.7543 0 8.5 0C6.24566 0 4.08365 0.895533 2.48959 2.48959C0.895533 4.08365 0 6.24566 0 8.5C0 10.7543 0.895533 12.9163 2.48959 14.5104C4.08365 16.1045 6.24566 17 8.5 17ZM7.70312 11.4219V9.29688H5.57812C5.13652 9.29688 4.78125 8.9416 4.78125 8.5C4.78125 8.0584 5.13652 7.70312 5.57812 7.70312H7.70312V5.57812C7.70312 5.13652 8.0584 4.78125 8.5 4.78125C8.9416 4.78125 9.29688 5.13652 9.29688 5.57812V7.70312H11.4219C11.8635 7.70312 12.2188 8.0584 12.2188 8.5C12.2188 8.9416 11.8635 9.29688 11.4219 9.29688H9.29688V11.4219C9.29688 11.8635 8.9416 12.2188 8.5 12.2188C8.0584 12.2188 7.70312 11.8635 7.70312 11.4219Z" fill="white"/>
</g>
<defs>
<clipPath id="clip0_13_4045">
<rect width="17" height="17" fill="white"/>
</clipPath>
</defs>
</svg>
