<svg width="16" height="18" viewBox="0 0 16 18" fill="none" xmlns="http://www.w3.org/2000/svg">
<path d="M0.000219345 8.99986C0.000219345 8.69048 0.264504 8.43736 0.593076 8.43736H14.0677L9.04272 3.18853C8.82282 2.95893 8.84075 2.60283 9.08264 2.39435C9.19664 2.29908 9.3395 2.24986 9.48236 2.24986C9.64325 2.24986 9.80411 2.31138 9.92093 2.43443L15.8459 8.62193C16.0514 8.83617 16.0514 9.16369 15.8459 9.37779L9.92093 15.5653C9.69986 15.796 9.32486 15.8114 9.08343 15.6037C8.84154 15.395 8.82361 15.0391 9.0435 14.8096L14.0677 9.56236H0.592719C0.264504 9.56236 0.000219345 9.30923 0.000219345 8.99986Z" fill="black"/>
</svg>
