<svg width="26" height="18" viewBox="0 0 26 18" fill="none" xmlns="http://www.w3.org/2000/svg">
<g clip-path="url(#clip0_13_3988)">
<path d="M8.66667 0.0927734C3.88194 0.0927734 0 4.04071 0 8.99999C0 13.9175 3.88194 17.9072 8.66667 17.9072H17.3333C22.1199 17.9072 26 13.9175 26 8.99999C26 4.04071 22.1199 0.0927734 17.3333 0.0927734H8.66667ZM8.66667 13.4536C6.27431 13.4536 4.33333 11.4588 4.33333 8.99999C4.33333 6.49947 6.27431 4.54638 8.66667 4.54638C11.0997 4.54638 13 6.49947 13 8.99999C13 11.4588 11.0997 13.4536 8.66667 13.4536Z" fill="#998E95"/>
</g>
<defs>
<clipPath id="clip0_13_3988">
<rect width="26" height="18" fill="white" transform="matrix(-1 0 0 1 26 0)"/>
</clipPath>
</defs>
</svg>
