<svg width="69" height="62" viewBox="0 0 69 62" fill="none" xmlns="http://www.w3.org/2000/svg">
<path d="M36.4 15.7438L35.7851 15.5604C34.8698 15.2874 34.3468 14.3243 34.6201 13.4069L36.4 15.7438ZM36.4 15.7438L36.5104 15.6178M36.4 15.7438L36.5104 15.6178M36.5104 15.6178C37.1662 15.5295 37.7399 15.0668 37.9395 14.3939C39.0038 10.8185 42.363 8.31504 46.0998 8.31504C47.0562 8.31504 47.8316 7.53959 47.8316 6.5833C47.8316 5.62697 47.0561 4.85156 46.0998 4.85156C40.6583 4.85156 36.0881 8.47466 34.6203 13.4063L36.5104 15.6178Z" fill="#449C45" stroke="#F9FFF9" stroke-width="2"/>
<path d="M56.3438 42.4384H51.9534C51.5494 42.4384 51.2217 42.1107 51.2217 41.7067C51.2217 41.3027 51.5494 40.9749 51.9534 40.9749H56.3438C62.3956 40.9749 67.3197 36.0509 67.3197 29.999C67.3197 23.9471 62.3956 19.023 56.3438 19.023H56.2382C56.026 19.023 55.8242 18.9311 55.6852 18.7706C55.5462 18.6101 55.4834 18.3974 55.5138 18.1873C55.5791 17.7315 55.612 17.2737 55.612 16.8279C55.612 11.5829 51.3444 7.31531 46.0995 7.31531C44.059 7.31531 42.1131 7.95296 40.4719 9.15978C40.1112 9.42478 39.599 9.30718 39.3905 8.91047C34.7425 0.0596993 22.6023 -1.12887 16.3082 6.57053C13.6568 9.81417 12.615 14.0336 13.4498 18.146C13.5418 18.6002 13.1942 19.0236 12.7327 19.0236H12.4395C6.3876 19.0236 1.46353 23.9477 1.46353 29.9996C1.46353 36.0514 6.3876 40.9755 12.4395 40.9755H16.8298C17.2338 40.9755 17.5615 41.3032 17.5615 41.7072C17.5615 42.1113 17.2338 42.439 16.8298 42.439H12.4395C5.5805 42.439 0 36.8585 0 29.9995C0 23.3329 5.27155 17.8742 11.8651 17.5731C11.2457 13.3066 12.4301 9.00295 15.1751 5.64437C21.9138 -2.5996 34.828 -1.67556 40.2871 7.51707C42.0287 6.42522 44.0215 5.85244 46.0992 5.85244C52.4538 5.85244 57.4892 11.261 57.0486 17.58C63.5813 17.9463 68.7829 23.3763 68.7829 29.999C68.7829 36.8585 63.2024 42.4384 56.3434 42.4384L56.3438 42.4384Z" fill="#449C45"/>
<path d="M15 41.2935C15 51.9329 23.6542 60.587 34.2935 60.587C44.9329 60.587 53.587 51.9327 53.587 41.2935C53.587 30.6541 44.9329 22 34.2935 22C23.6541 22 15 30.6542 15 41.2935ZM18.4638 41.2935C18.4638 32.566 25.5659 25.4638 34.2935 25.4638C43.0209 25.4638 50.1232 32.5659 50.1232 41.2935C50.1232 50.0209 43.0209 57.1232 34.2935 57.1232C25.566 57.1232 18.4638 50.0211 18.4638 41.2935Z" fill="#FFA300" stroke="#F9FFF9" stroke-width="2"/>
<path d="M34.6285 49.1934C34.3327 49.1934 34.0928 48.9534 34.0928 48.6577V34.7291C34.0928 34.4333 34.3327 34.1934 34.6285 34.1934C34.9243 34.1934 35.1642 34.4333 35.1642 34.7291V48.6577C35.1642 48.9538 34.9243 49.1934 34.6285 49.1934Z" fill="#FFA300"/>
<path d="M38.9138 39.552C38.7768 39.552 38.6394 39.4996 38.5349 39.3951L34.6281 35.4882L30.7213 39.3951C30.5123 39.6044 30.1729 39.6044 29.9636 39.3951C29.7543 39.1858 29.7543 38.8468 29.9636 38.6374L34.2493 34.3518C34.4582 34.1425 34.7976 34.1425 35.0069 34.3518L39.2925 38.6374C39.5019 38.8468 39.5019 39.1858 39.2925 39.3951C39.1881 39.4999 39.0507 39.552 38.9137 39.552H38.9138Z" fill="#FFA300"/>
</svg>
