<svg width="174" height="174" viewBox="0 0 174 174" fill="none" xmlns="http://www.w3.org/2000/svg">
<path d="M87 0C69.7931 0 52.9725 5.10246 38.6654 14.6621C24.3583 24.2218 13.2073 37.8094 6.62252 53.7065C0.0376957 69.6037 -1.68519 87.0965 1.67172 103.973C5.02863 120.849 13.3146 136.351 25.4817 148.518C37.6489 160.685 53.1508 168.971 70.0272 172.328C86.9035 175.685 104.396 173.962 120.293 167.377C136.191 160.793 149.778 149.642 159.338 135.335C168.898 121.028 174 104.207 174 87C174 75.575 171.75 64.2618 167.378 53.7065C163.005 43.1512 156.597 33.5604 148.518 25.4817C140.44 17.403 130.849 10.9946 120.293 6.62248C109.738 2.25032 98.425 0 87 0ZM87 156.6C73.2344 156.6 59.778 152.518 48.3323 144.87C36.8867 137.223 27.9659 126.352 22.698 113.635C17.4302 100.917 16.0519 86.9228 18.7374 73.4217C21.4229 59.9206 28.0517 47.5191 37.7854 37.7854C47.5191 28.0516 59.9207 21.4229 73.4217 18.7373C86.9228 16.0518 100.917 17.4301 113.635 22.698C126.353 27.9658 137.223 36.8866 144.87 48.3323C152.518 59.778 156.6 73.2344 156.6 87C156.6 105.459 149.267 123.162 136.215 136.215C123.162 149.267 105.459 156.6 87 156.6Z" fill="#FFA300"/>
<path d="M87.0002 79.1504C69.6002 79.1504 69.6002 74.5199 69.6002 71.8004C69.6002 69.0809 75.6902 64.4504 87.0002 64.4504C98.3102 64.4504 99.0932 69.1544 99.1802 71.8004H116.58C116.463 66.7932 114.331 61.9691 110.536 58.1217C106.741 54.2744 101.509 51.633 95.7002 50.6324V42.4004H78.3002V50.4119C60.9002 52.8374 52.2002 62.3189 52.2002 71.8004C52.2002 80.0324 56.7242 93.8504 87.0002 93.8504C104.4 93.8504 104.4 98.8484 104.4 101.2C104.4 103.552 99.0062 108.55 87.0002 108.55C70.9922 108.55 69.6002 102.229 69.6002 101.2H52.2002C52.2002 107.962 57.9422 119.943 78.3002 122.662V130.6H95.7002V122.662C113.1 120.163 121.8 110.682 121.8 101.2C121.8 92.9684 117.276 79.1504 87.0002 79.1504Z" fill="#449C45"/>
</svg>
